<?xml version="1.0" standalone="no"?>
<!DOCTYPE svg PUBLIC "-//W3C//DTD SVG 20010904//EN"
 "http://www.w3.org/TR/2001/REC-SVG-20010904/DTD/svg10.dtd">
<svg version="1.0" xmlns="http://www.w3.org/2000/svg"
 width="400.000000pt" height="400.000000pt" viewBox="0 0 400.000000 400.000000"
 preserveAspectRatio="xMidYMid meet">

<g transform="translate(0.000000,400.000000) scale(0.100000,-0.100000)"
fill="#ffffff" stroke="none">
<path d="M1668 3984 c-787 -143 -1398 -694 -1602 -1446 -52 -190 -66 -297 -66
-521 0 -225 15 -346 66 -534 87 -324 272 -641 514 -883 276 -276 625 -462
1025 -547 121 -25 147 -27 375 -27 256 -1 338 8 520 55 250 66 508 194 720
358 500 386 795 1022 766 1648 -24 528 -232 993 -603 1353 -303 295 -649 469
-1079 544 -116 21 -523 20 -636 0z m591 -50 c441 -64 820 -259 1131 -580 369
-382 554 -868 537 -1404 -6 -192 -22 -298 -69 -465 -247 -885 -1098 -1480
-2010 -1407 -225 18 -420 65 -616 149 -930 397 -1400 1439 -1082 2396 215 645
752 1133 1411 1281 63 14 146 30 184 35 118 15 397 12 514 -5z"/>
<path d="M2240 3672 c0 -6 10 -12 23 -14 14 -2 23 -11 25 -25 2 -17 -23 -50
-100 -131 -109 -116 -153 -182 -164 -249 -5 -36 -3 -45 19 -67 33 -33 82 -34
127 -3 31 20 100 99 126 143 7 10 14 17 17 14 2 -3 8 -47 12 -97 l7 -93 -31 0
c-80 0 12 -34 151 -57 42 -6 54 11 14 21 -21 5 -25 14 -31 59 -10 96 -34 441
-30 448 3 3 16 4 30 1 14 -2 25 0 25 6 0 5 -33 17 -72 26 -113 26 -148 30
-148 18z m63 -189 c6 -81 -1 -98 -79 -182 -44 -48 -62 -61 -85 -61 -22 0 -32
7 -41 25 -17 38 39 142 119 222 35 35 68 63 72 63 5 0 11 -30 14 -67z"/>
<path d="M1583 3643 c-68 -20 -130 -73 -139 -118 -11 -60 -4 -65 60 -46 l55
16 -6 42 c-5 35 -2 45 20 67 56 56 116 22 137 -78 15 -74 1 -101 -62 -124 -33
-11 -47 -22 -45 -32 2 -8 7 -14 13 -13 89 15 100 14 125 -6 47 -37 64 -156 28
-192 -20 -20 -28 -21 -119 -14 l-97 7 -22 -27 c-23 -30 -26 -60 -11 -100 6
-16 14 -23 22 -19 6 4 25 10 42 13 29 6 30 9 28 48 -4 48 13 59 78 48 139 -23
246 70 211 184 -15 52 -39 70 -110 83 -33 6 -61 15 -61 20 0 4 17 19 39 33 93
62 78 182 -27 213 -51 15 -95 14 -159 -5z"/>
<path d="M2841 3433 c-6 -21 -20 -53 -31 -71 -37 -61 -20 -68 50 -22 25 16 53
30 64 30 21 0 86 -37 86 -49 0 -7 -253 -315 -291 -356 -6 -6 -20 -3 -39 8 -22
14 -30 15 -29 5 0 -11 67 -72 146 -132 29 -23 43 -13 19 13 -10 11 -16 24 -15
30 6 17 289 351 298 351 5 0 20 -9 35 -21 32 -25 35 -74 6 -138 -22 -47 -19
-62 8 -43 9 7 41 26 70 43 31 19 52 38 52 49 0 9 -19 30 -42 45 -50 33 -269
218 -312 264 -40 42 -63 40 -75 -6z"/>
<path d="M1103 3450 c-12 -5 -29 -20 -39 -35 -26 -40 -12 -90 74 -264 94 -190
88 -175 71 -169 -24 9 -314 228 -318 240 -2 6 4 17 13 24 11 8 13 14 7 19 -11
6 -142 -97 -150 -118 -2 -6 5 -8 18 -4 15 4 38 -7 79 -37 145 -108 328 -243
339 -249 6 -4 25 1 41 10 17 10 32 15 34 13 2 -3 25 -38 52 -78 l49 -73 23 22
23 22 -59 65 c-62 67 -67 76 -50 87 18 11 10 26 -12 23 -20 -3 -31 11 -76 97
-74 138 -102 208 -102 255 0 32 5 43 28 57 15 9 29 18 31 20 2 2 -3 11 -11 20
-9 10 -19 28 -22 41 -8 24 -11 25 -43 12z"/>
<path d="M1940 2940 c-10 -10 -31 -42 -45 -70 -51 -101 -205 -320 -225 -320
-4 0 -14 28 -22 63 l-14 62 -59 -3 c-33 -1 -63 -6 -68 -11 -5 -5 3 -31 17 -59
14 -28 30 -77 35 -109 l9 -58 -45 -43 c-95 -88 -261 -203 -412 -284 -85 -47
-72 -74 80 -161 26 -15 58 -40 72 -56 24 -29 24 -33 19 -144 -6 -143 5 -190
69 -302 63 -110 69 -136 36 -154 -20 -11 -47 -48 -47 -66 0 -3 10 -11 23 -20
21 -13 35 -12 147 9 207 40 341 49 595 43 127 -3 291 -13 365 -21 74 -8 136
-14 137 -12 5 5 -65 23 -157 41 -47 10 -86 18 -88 20 -1 1 30 35 70 76 77 78
128 165 128 218 0 33 -31 62 -105 98 -98 49 -119 38 -128 -65 -9 -90 -38 -184
-77 -246 l-31 -48 -57 6 c-141 16 -283 25 -489 32 -253 8 -265 11 -302 86 -47
97 -50 333 -7 459 13 38 13 44 0 54 -13 9 -10 14 20 30 29 16 38 29 57 87 12
38 35 89 51 113 39 59 129 140 190 171 59 30 86 27 36 -4 -46 -29 -118 -106
-150 -162 -20 -35 -58 -137 -58 -156 0 -2 30 8 67 22 37 14 115 37 173 52 92
23 126 26 275 27 106 0 196 -5 240 -14 177 -35 366 -117 451 -197 27 -24 49
-44 51 -44 13 0 -4 77 -36 162 -110 293 -254 492 -559 771 -163 150 -193 166
-232 127z"/>
<path d="M566 2882 c-11 -18 -186 -460 -186 -471 0 -20 17 -12 29 15 6 14 17
24 24 21 247 -98 405 -162 414 -169 8 -7 9 -17 2 -35 -10 -27 -5 -43 10 -27
10 10 81 183 81 196 0 17 -19 7 -25 -13 -5 -15 -13 -20 -28 -16 -30 6 -399
158 -414 169 -14 11 42 158 61 158 6 1 105 -36 219 -82 206 -82 208 -83 204
-110 -8 -58 19 -24 57 68 26 67 35 99 28 106 -8 8 -13 3 -18 -16 -3 -14 -13
-26 -21 -26 -17 0 -414 158 -426 169 -4 4 -3 20 2 34 9 24 -1 48 -13 29z"/>
<path d="M3495 2713 c18 -44 13 -48 -55 -47 -36 0 -114 9 -173 19 -90 15 -119
16 -169 7 -101 -19 -135 -57 -108 -123 20 -47 77 -70 189 -78 l95 -6 -70 -56
c-93 -75 -91 -74 -107 -43 -8 15 -17 22 -20 17 -8 -13 66 -198 78 -198 5 0 9
14 9 31 1 28 18 45 186 177 102 81 190 147 197 147 6 0 15 -9 18 -20 6 -19 25
-28 25 -12 0 25 -77 202 -89 202 -9 0 -11 -6 -6 -17z m-121 -75 c27 -7 51 -17
52 -23 2 -5 -26 -30 -62 -54 l-65 -45 -85 12 c-96 14 -131 27 -139 52 -11 36
11 57 80 74 31 8 164 -2 219 -16z"/>
<path d="M1600 1814 c-18 -46 -13 -73 17 -80 40 -10 58 7 61 60 l3 46 -36 0
c-29 0 -37 -5 -45 -26z"/>
<path d="M1486 1801 c-9 -10 -21 -32 -25 -49 -12 -42 4 -55 45 -37 24 10 33
21 38 49 4 20 4 41 1 46 -10 16 -41 11 -59 -9z"/>
<path d="M1586 1665 c-3 -9 -6 -34 -6 -55 0 -30 5 -40 20 -45 48 -15 76 18 68
81 -3 25 -8 29 -39 32 -26 2 -38 -1 -43 -13z"/>
<path d="M560 1612 c-33 -32 -60 -66 -60 -75 0 -19 82 -112 113 -128 13 -8 25
-6 40 4 42 27 107 102 107 123 0 22 -109 134 -130 134 -6 0 -38 -26 -70 -58z"/>
<path d="M1468 1658 c-49 -39 -12 -122 40 -90 16 11 33 68 25 88 -6 17 -44 18
-65 2z"/>
<path d="M3318 1608 c-26 -24 -54 -56 -64 -71 l-17 -28 66 -65 65 -65 30 15
c34 17 112 104 112 124 0 18 -113 132 -131 132 -8 0 -35 -19 -61 -42z"/>
<path d="M2640 1471 c0 -43 -10 -61 -34 -61 -20 -1 -20 -2 -3 -14 24 -18 11
-46 -21 -46 -24 0 -25 -1 -8 -13 18 -13 18 -15 0 -43 l-18 -29 32 30 c30 27
35 28 55 16 21 -14 22 -13 4 6 -34 39 4 70 47 38 13 -10 17 -21 12 -40 -4 -15
-12 -25 -19 -22 -7 3 -12 -5 -12 -20 0 -23 2 -22 37 16 40 43 57 86 40 103 -8
8 -13 3 -18 -16 -7 -31 -14 -32 -46 -6 -23 18 -25 22 -15 59 8 30 8 43 -2 55
-20 24 -31 19 -31 -13z"/>
<path d="M1080 1203 c0 -3 7 -14 15 -23 14 -16 14 -30 -4 -145 -11 -70 -21
-129 -23 -130 -2 -2 -48 -24 -103 -50 -100 -47 -153 -57 -179 -36 -9 8 -17 8
-20 2 -6 -9 108 -111 125 -111 12 0 12 17 -1 25 -20 12 -9 40 23 60 50 32 136
69 143 62 7 -6 -22 -216 -31 -225 -2 -3 -13 2 -23 11 -19 18 -46 23 -40 9 2
-7 63 -57 186 -155 24 -19 26 3 2 28 -23 24 -23 26 -11 111 7 47 19 125 28
171 16 85 16 85 57 104 22 10 53 19 68 19 28 0 58 -23 58 -44 0 -8 7 -19 15
-26 13 -11 19 -9 38 7 12 11 30 23 40 26 24 9 21 24 -12 58 -38 37 -97 39
-181 5 -32 -13 -60 -22 -63 -20 -5 5 13 137 19 144 3 2 14 -1 24 -8 23 -14 30
-15 30 -3 0 11 -158 141 -171 141 -5 0 -9 -3 -9 -7z"/>
<path d="M2742 1079 c-45 -39 -79 -75 -76 -81 4 -5 13 -3 23 6 42 38 58 13 81
-128 30 -187 68 -288 119 -316 35 -18 76 -12 102 16 21 22 24 35 23 92 0 42
-9 89 -22 126 -12 33 -20 61 -18 63 6 6 166 -98 166 -108 0 -5 -7 -12 -15 -15
-14 -6 -22 -34 -9 -34 8 0 158 131 162 142 5 12 -15 10 -37 -4 -16 -10 -47 6
-225 121 -113 73 -206 137 -206 141 0 4 7 13 15 20 16 14 20 30 7 30 -5 0 -45
-32 -90 -71z m124 -150 c61 -45 70 -62 89 -169 16 -87 5 -120 -40 -120 -29 0
-54 34 -86 120 -20 52 -41 187 -32 203 7 11 11 9 69 -34z"/>
<path d="M2480 889 c-42 -17 -311 -80 -379 -89 -81 -11 -92 -21 -62 -60 12
-17 31 -51 41 -76 11 -25 24 -43 29 -40 4 3 11 31 15 62 3 31 11 64 16 75 9
17 85 48 94 38 11 -11 106 -453 99 -459 -4 -5 -16 -10 -26 -12 -10 -1 -17 -7
-15 -13 2 -5 5 -9 8 -9 3 1 51 12 108 24 99 22 135 45 70 45 l-32 0 -48 205
c-53 227 -55 245 -32 254 56 21 97 -1 134 -74 12 -23 26 -40 31 -38 6 2 12 43
14 91 3 84 2 87 -18 86 -12 0 -33 -5 -47 -10z"/>
<path d="M1650 855 c0 -7 11 -16 25 -19 46 -12 26 -48 -79 -147 -169 -158
-222 -306 -121 -339 60 -20 129 23 194 121 23 35 43 55 45 48 2 -8 7 -54 11
-103 l6 -88 -30 4 c-19 3 -31 0 -31 -7 0 -9 170 -55 203 -55 15 0 6 16 -15 25
-25 11 -27 25 -43 355 l-7 150 31 0 c48 0 37 16 -21 29 -29 6 -79 18 -110 26
-47 11 -58 11 -58 0z m58 -196 c3 -58 0 -69 -29 -112 -37 -56 -115 -127 -140
-127 -26 0 -50 39 -42 69 16 66 168 248 198 238 6 -2 11 -33 13 -68z"/>
</g>
</svg>
